<?xml version="1.0" encoding="UTF-8" standalone="no"?>
<!-- Created with Inkscape (http://www.inkscape.org/) -->

<svg
   xmlns:dc="http://purl.org/dc/elements/1.1/"
   xmlns:cc="http://creativecommons.org/ns#"
   xmlns:rdf="http://www.w3.org/1999/02/22-rdf-syntax-ns#"
   xmlns:svg="http://www.w3.org/2000/svg"
   xmlns="http://www.w3.org/2000/svg"
   xmlns:sodipodi="http://sodipodi.sourceforge.net/DTD/sodipodi-0.dtd"
   xmlns:inkscape="http://www.inkscape.org/namespaces/inkscape"
   width="125.14858"
   height="228.10107"
   id="svg3167"
   version="1.1"
   inkscape:version="0.48.5 r10040"
   sodipodi:docname="logo-100px.svg">
  <defs
     id="defs3169" />
  <sodipodi:namedview
     id="base"
     pagecolor="#ffffff"
     bordercolor="#666666"
     borderopacity="1.0"
     inkscape:pageopacity="0.0"
     inkscape:pageshadow="2"
     inkscape:zoom="0.1767767"
     inkscape:cx="201.73517"
     inkscape:cy="62.16717"
     inkscape:document-units="px"
     inkscape:current-layer="layer5"
     showgrid="false"
     inkscape:window-width="1024"
     inkscape:window-height="702"
     inkscape:window-x="0"
     inkscape:window-y="27"
     inkscape:window-maximized="1"
     fit-margin-top="20"
     fit-margin-left="20"
     fit-margin-right="20"
     fit-margin-bottom="20" />
  <metadata
     id="metadata3172">
    <rdf:RDF>
      <cc:Work
         rdf:about="">
        <dc:format>image/svg+xml</dc:format>
        <dc:type
           rdf:resource="http://purl.org/dc/dcmitype/StillImage" />
        <dc:title></dc:title>
      </cc:Work>
    </rdf:RDF>
  </metadata>
  <g
     inkscape:label="corps"
     inkscape:groupmode="layer"
     id="layer1"
     style="display:inline"
     transform="translate(-299.72406,-532.49255)" />
  <g
     inkscape:groupmode="layer"
     id="layer4"
     inkscape:label="ailes"
     style="opacity:0.68000034;display:inline"
     transform="translate(-299.72406,-532.49255)" />
  <g
     inkscape:groupmode="layer"
     id="layer8"
     inkscape:label="drapeau"
     style="display:inline"
     transform="translate(-299.72406,-532.49255)" />
  <g
     inkscape:groupmode="layer"
     id="layer2"
     inkscape:label="rond"
     transform="translate(-373.34659,-824.46396)" />
  <g
     inkscape:groupmode="layer"
     id="layer6"
     inkscape:label="Calque#1"
     transform="translate(-373.34659,-824.46396)">
    <text
       xml:space="preserve"
       style="font-size:40px;font-style:normal;font-weight:normal;line-height:125%;letter-spacing:0px;word-spacing:0px;fill:#000000;fill-opacity:1;stroke:none;font-family:Sans"
       x="73.539108"
       y="750.18146"
       id="text3890"
       sodipodi:linespacing="125%"><tspan
         sodipodi:role="line"
         x="73.539108"
         y="750.18146"
         id="tspan3894" /></text>
  </g>
  <g
     inkscape:groupmode="layer"
     id="layer5"
     inkscape:label="tete"
     style="display:inline"
     transform="translate(-299.72406,-532.49255)">
    <g
       id="g3019"
       transform="matrix(0.0996928,0,0,0.0996928,325.06984,579.60614)">
      <g
         transform="matrix(1,0,0,1.8820845,0,-91.55222)"
         id="g4474"
         style="display:inline">
        <path
           sodipodi:type="arc"
           style="fill:#000000"
           id="path3179"
           sodipodi:cx="721.42859"
           sodipodi:cy="870.93359"
           sodipodi:rx="401.42856"
           sodipodi:ry="401.42856"
           d="m 1122.8571,870.93359 c 0,221.70291 -179.72564,401.42861 -401.42851,401.42861 -221.70287,0 -401.42856,-179.7257 -401.42856,-401.42861 0,-221.70287 179.72569,-401.42855 401.42856,-401.42855 221.70287,0 401.42851,179.72568 401.42851,401.42855 z"
           transform="translate(-348.57143,-365.71429)" />
        <path
           sodipodi:type="arc"
           style="fill:#ffff00"
           id="path3179-7"
           sodipodi:cx="721.42859"
           sodipodi:cy="870.93359"
           sodipodi:rx="401.42856"
           sodipodi:ry="401.42856"
           d="m 1122.8571,870.93359 c 0,221.70291 -179.72564,401.42861 -401.42851,401.42861 -221.70287,0 -401.42856,-179.7257 -401.42856,-401.42861 0,-221.70287 179.72569,-401.42855 401.42856,-401.42855 221.70287,0 401.42851,179.72568 401.42851,401.42855 z"
           transform="matrix(0.95729538,0,0,0.75088967,-317.19168,-148.75572)" />
        <path
           sodipodi:type="arc"
           style="fill:#000000"
           id="path3179-7-5"
           sodipodi:cx="721.42859"
           sodipodi:cy="870.93359"
           sodipodi:rx="401.42856"
           sodipodi:ry="401.42856"
           d="m 1122.8571,870.93359 c 0,221.70291 -179.72564,401.42861 -401.42851,401.42861 -221.70287,0 -401.42856,-179.7257 -401.42856,-401.42861 0,-221.70287 179.72569,-401.42855 401.42856,-401.42855 221.70287,0 401.42851,179.72568 401.42851,401.42855 z"
           transform="matrix(0.99288257,0,0,0.45195728,-342.86531,111.88026)" />
        <path
           sodipodi:type="arc"
           style="fill:#ffff00"
           id="path3179-7-5-3"
           sodipodi:cx="721.42859"
           sodipodi:cy="870.93359"
           sodipodi:rx="401.42856"
           sodipodi:ry="401.42856"
           d="m 1122.8571,870.93359 c 0,221.70291 -179.72564,401.42861 -401.42851,401.42861 -221.70287,0 -401.42856,-179.7257 -401.42856,-401.42861 0,-221.70287 179.72569,-401.42855 401.42856,-401.42855 221.70287,0 401.42851,179.72568 401.42851,401.42855 z"
           transform="matrix(0.90747331,0,0,0.15302489,-281.53433,372.51624)" />
      </g>
      <g
         id="g3005">
        <g
           id="g4196"
           transform="matrix(0.87632244,0,0,1.1869206,49.690491,11.41946)"
           style="opacity:0.68000034;fill:#f2f2f2;display:inline">
          <path
             transform="matrix(1.0715555,-0.34714686,-0.46047908,-1.1260995,1204.8981,1217.7754)"
             d="m -100,655.2193 c 0,187.77681 -71.63444,340 -160,340 -88.36556,0 -160,-152.22319 -160,-340 0,-187.77682 71.63444,-340 160,-340 88.36556,0 160,152.22318 160,340 z"
             sodipodi:ry="340"
             sodipodi:rx="160"
             sodipodi:cy="655.2193"
             sodipodi:cx="-260"
             id="path3268-0"
             style="fill:#f2f2f2;fill-opacity:1"
             sodipodi:type="arc" />
          <path
             transform="matrix(-1.0715555,-0.34714686,0.46047908,-1.1260995,-466.03349,1217.7754)"
             d="m -100,655.2193 c 0,187.77681 -71.63444,340 -160,340 -88.36556,0 -160,-152.22319 -160,-340 0,-187.77682 71.63444,-340 160,-340 88.36556,0 160,152.22318 160,340 z"
             sodipodi:ry="340"
             sodipodi:rx="160"
             sodipodi:cy="655.2193"
             sodipodi:cx="-260"
             id="path3268-0-5"
             style="fill:#f2f2f2;fill-opacity:1"
             sodipodi:type="arc" />
        </g>
        <g
           style="display:inline"
           id="g4425"
           transform="matrix(1.1484033,0,0,1.1411856,-57.586298,10.51993)">
          <path
             id="rect4280"
             d="m 277.71875,-231.75512 c -82.11021,25.28533 -139.15625,80.90493 -139.15625,145.468744 0,63.44782 55.07707,118.283305 134.90625,144.15625 C 285.20155,40.392458 292.25,17.837898 292.25,-6.8488766 l 0,-167.1874934 c 0,-21.51627 -5.38798,-41.39119 -14.53125,-57.71875 z"
             style="fill:#000080;fill-opacity:1"
             inkscape:connector-curvature="0" />
          <path
             id="rect4280-3-1"
             d="m 467.09375,-230.6875 c -9.99413,16.76385 -15.90625,37.56424 -15.90625,60.15625 l 0,167.1875 c 0,24.934313 7.1799,47.700523 19.125,65.25 82.71979,-25.120533 140.25,-80.982615 140.25,-145.84375 0,-65.69726 -59.03071,-122.11169 -143.46875,-146.75 z"
             style="fill:#d40000;fill-opacity:1"
             inkscape:connector-curvature="0" />
        </g>
        <path
           style="fill:#000000;fill-opacity:1"
           d="m 372.84184,-271.97141 c -153.13684,0 -277.258744,82.55215 -277.258744,184.348315 0,101.796166 124.121904,184.313255 277.258744,184.313255 153.13685,0 277.29381,-82.517089 277.29381,-184.313255 0,-101.796165 -124.15696,-184.348315 -277.29381,-184.348315 z m -0.63108,50.34693 c 144.285,0 261.27114,59.54941 261.27114,133.01969 0,73.470278 -116.98614,133.019688 -261.27114,133.019688 -144.28501,0 -261.23609,-59.54941 -261.23609,-133.019688 0,-73.47028 116.95108,-133.01969 261.23609,-133.01969 z"
           id="path4174"
           inkscape:connector-curvature="0" />
      </g>
    </g>
  </g>
  <g
     inkscape:groupmode="layer"
     id="layer3"
     inkscape:label="Calque"
     transform="translate(-373.34659,-824.46396)" />
</svg>
